<?xml version="1.0" encoding="UTF-8"?>
<svg version="1.1" xmlns="http://www.w3.org/2000/svg" width="100" height="100">
<path d="M0 0 C2.33271117 -0.00434172 4.6634753 -0.04067247 6.99584961 -0.07861328 C20.41560977 -0.17867748 36.63865628 1.10554623 47.79858398 9.37060547 C52.08248189 13.76504612 53.42600016 16.13261699 53.49316406 22.45825195 C53.51353477 23.48145538 53.51353477 23.48145538 53.53431702 24.52532959 C53.57140557 26.76466904 53.57165806 29.00208091 53.56811523 31.24169922 C53.579114 32.80819943 53.5911494 34.37469267 53.60417175 35.94117737 C53.62503819 39.218726 53.62638004 42.49560391 53.61523438 45.77319336 C53.60354175 49.96159378 53.65107208 54.14696138 53.71469593 58.3348074 C53.75539455 61.56843212 53.75905096 64.80133122 53.75229454 68.03517342 C53.75449265 69.57851217 53.76929623 71.12188899 53.79725075 72.66497612 C53.98965199 84.65883741 53.98965199 84.65883741 51.0695343 88.85554504 C47.28218976 92.25886851 43.16812105 94.48473907 38.36108398 96.18310547 C37.33112305 96.56080078 36.30116211 96.93849609 35.23999023 97.32763672 C28.01251478 99.51802939 21.25126274 100.68502757 13.69702148 100.70654297 C12.85748932 100.71319977 12.01795715 100.71985657 11.15298462 100.72671509 C9.38659836 100.73677221 7.62017463 100.74153428 5.85375977 100.74121094 C3.20058859 100.74556119 0.54911577 100.78189081 -2.10375977 100.81982422 C-17.09574261 100.91887398 -32.7935695 99.17203428 -44.7922821 89.22213745 C-47.79364022 85.66962897 -47.84791208 83.9071098 -47.89599609 79.3046875 C-47.90957657 78.61294434 -47.92315704 77.92120117 -47.93714905 77.20849609 C-47.97432085 74.93126538 -47.97448603 72.65592458 -47.97094727 70.37841797 C-47.98194264 68.78806836 -47.99397748 67.19772563 -48.00700378 65.60739136 C-48.02789002 62.27679132 -48.02920195 58.94685131 -48.01806641 55.61621094 C-48.00638308 51.35941801 -48.05386467 47.10561387 -48.11752796 42.84936714 C-48.1582278 39.56513067 -48.16188262 36.28160866 -48.15512657 32.99715805 C-48.15732536 31.42870065 -48.17213696 29.86020596 -48.20008278 28.291996 C-48.39243896 16.09954684 -48.39243896 16.09954684 -45.4788208 11.87001038 C-41.56147991 8.34113696 -37.34535994 6.19824534 -32.32641602 4.55810547 C-31.21524414 4.18041016 -30.10407227 3.80271484 -28.95922852 3.41357422 C-19.24609678 0.7177258 -10.04816496 -0.00208274 0 0 Z " fill="#0A699F" transform="translate(47.201416015625,-0.37060546875)"/>
<path d="M0 0 C2.33271117 -0.00434172 4.6634753 -0.04067247 6.99584961 -0.07861328 C21.58786047 -0.18741835 40.00203882 1.34492972 50.98608398 12.12060547 C53.09960492 15.91036714 53.40552029 17.98800336 52.60717773 22.19873047 C51.07113181 26.32453498 48.57906947 28.25180396 44.79858398 30.37060547 C21.09892259 41.14596965 -7.69371989 41.51034334 -32.24829102 33.50341797 C-38.25677224 31.19857729 -43.97998224 28.14234099 -47.20141602 22.37060547 C-48.14376194 17.50181819 -48.14376194 17.50181819 -47.20141602 14.37060547 C-41.05887048 5.45104085 -28.33517983 2.68272715 -18.27172852 0.76538086 C-12.20481171 -0.01469265 -6.10764698 -0.00126596 0 0 Z " fill="#A3B8FB" transform="translate(47.201416015625,-0.37060546875)"/>
<path d="M0 0 C0.58652344 0.7734375 1.17304688 1.546875 1.77734375 2.34375 C8.83430563 10.77737755 21.48166377 13.66055204 32 15 C38.0757544 15.47228476 44.15876291 15.53468257 50.25 15.5625 C51.01414215 15.57117096 51.7782843 15.57984192 52.56558228 15.58877563 C67.00669261 15.70236632 79.75485216 13.00446702 93 7 C93.72316406 6.68546875 94.44632812 6.3709375 95.19140625 6.046875 C97.75168556 4.56489907 98.13358304 2.7436537 99 0 C99.33 0 99.66 0 100 0 C100.23382288 3.85313128 100.37489753 7.70442912 100.5 11.5625 C100.60054687 13.19155273 100.60054687 13.19155273 100.703125 14.85351562 C100.89487175 22.73910057 100.89487175 22.73910057 98.40991211 26.24047852 C94.57471744 29.74133937 90.46626358 32.07995931 85.5625 33.8125 C84.53253906 34.19019531 83.50257812 34.56789062 82.44140625 34.95703125 C75.21393079 37.14742393 68.45267876 38.3144221 60.8984375 38.3359375 C60.05890533 38.3425943 59.21937317 38.3492511 58.35440063 38.35610962 C56.58801437 38.36616674 54.82159064 38.37092881 53.05517578 38.37060547 C50.40200461 38.37495572 47.75053179 38.41128534 45.09765625 38.44921875 C29.47880376 38.55241015 15.39347893 36.13538128 2.24609375 27.109375 C-1.25839819 22.2579392 -0.53346694 17.50402971 -0.3125 11.6875 C-0.28994141 10.56537109 -0.26738281 9.44324219 -0.24414062 8.28710938 C-0.18533776 5.52337464 -0.10320401 2.76237446 0 0 Z " fill="#074D6D" transform="translate(0,62)"/>
<path d="M0 0 C0.33 0 0.66 0 1 0 C1.17576433 3.35349327 1.28132437 6.70578979 1.375 10.0625 C1.42527344 11.00544922 1.47554688 11.94839844 1.52734375 12.91992188 C1.63064062 17.86095555 1.46688126 21.12346742 -1.76171875 25.015625 C-14.67060613 37.77454149 -35.75435771 37.35653006 -52.59692383 37.38012695 C-67.20363202 37.19858371 -85.05394967 35.78428604 -96 25 C-98.63229783 22.00304253 -99.36952987 20.21555304 -99.29296875 16.234375 C-99.28330078 15.34492187 -99.27363281 14.45546875 -99.26367188 13.5390625 C-99.23853516 12.61867188 -99.21339844 11.69828125 -99.1875 10.75 C-99.16719727 9.34621094 -99.16719727 9.34621094 -99.14648438 7.9140625 C-99.11119954 5.60878673 -99.06190281 3.3046894 -99 1 C-98.28972656 1.76054687 -97.57945313 2.52109375 -96.84765625 3.3046875 C-82.11591868 17.24830742 -58.80427965 16.61110235 -39.90673828 16.13623047 C-27.18492574 15.53999568 -9.94380333 12.71041504 -1 3 C-0.67 2.01 -0.34 1.02 0 0 Z " fill="#1B86CF" transform="translate(99,21)"/>
<path d="M0 0 C2.4375 0.8125 2.4375 0.8125 4.4375 2.8125 C4.6875 5.8125 4.6875 5.8125 4.4375 8.8125 C2.4375 10.8125 2.4375 10.8125 -0.5625 11.125 C-1.5525 11.021875 -2.5425 10.91875 -3.5625 10.8125 C-5.71752531 7.57996204 -6.03106135 6.56099077 -5.5625 2.8125 C-3.86282344 0.12880016 -3.19877434 -0.23405666 0 0 Z " fill="#9AB2F3" transform="translate(90.5625,76.1875)"/>
<path d="M0 0 C2.4375 0.75 2.4375 0.75 4.4375 1.75 C4.625 5.125 4.625 5.125 4.4375 8.75 C1.4375 10.75 1.4375 10.75 -1.125 10.5 C-3.5625 9.75 -3.5625 9.75 -5.5625 7.75 C-5.93046448 4.87987704 -5.93759409 3.34225382 -4.375 0.875 C-2.5625 -0.25 -2.5625 -0.25 0 0 Z " fill="#9BB5F7" transform="translate(90.5625,56.25)"/>
<path d="M0 0 C3 0.25 3 0.25 5 2.25 C5.25 5.25 5.25 5.25 5 8.25 C3 10.25 3 10.25 0 10.5 C-3 10.25 -3 10.25 -5 8.25 C-5.25 5.25 -5.25 5.25 -5 2.25 C-3 0.25 -3 0.25 0 0 Z " fill="#9CB6F9" transform="translate(90,35.75)"/>
</svg>