<?xml version="1.0" encoding="UTF-8"?>
<svg version="1.1" xmlns="http://www.w3.org/2000/svg" width="100" height="100">
<path d="M0 0 C33 0 66 0 100 0 C100 33 100 66 100 100 C67 100 34 100 0 100 C0 67 0 34 0 0 Z " fill="#0A699E" transform="translate(0,0)"/>
<path d="M0 0 C33 0 66 0 100 0 C100 22 100 22 95 28 C76.08974329 40.80812345 47.6011062 40.32815128 26.04882812 36.41259766 C16.31470929 34.40600298 8.09160481 31.09160481 1 24 C-2.58081307 16.83837387 0 8.00694143 0 0 Z " fill="#A3B9FA" transform="translate(0,0)"/>
<path d="M0 0 C1.65 1.65 3.3 3.3 5 5 C17.28286918 14.93942703 33.59940126 15.19838655 48.63671875 15.24023438 C50.73217837 15.24991764 52.82664506 15.28102237 54.921875 15.3125 C67.94989254 15.41525977 83.98320777 13.62496945 94.85546875 5.63671875 C96.34167223 4.21363655 96.34167223 4.21363655 98 2 C98.66 1.34 99.32 0.68 100 0 C100 12.54 100 25.08 100 38 C67 38 34 38 0 38 C0 25.46 0 12.92 0 0 Z " fill="#074E6E" transform="translate(0,62)"/>
<path d="M0 0 C0.45165527 0.4019458 0.90331055 0.8038916 1.36865234 1.21801758 C18.15167504 15.92151122 40.75889803 15.95615803 62 15 C76.44098616 13.82162818 89.52599531 10.47400469 100 0 C100.17591619 3.18678936 100.28136778 6.3723164 100.375 9.5625 C100.42527344 10.45775391 100.47554688 11.35300781 100.52734375 12.27539062 C100.63293965 17.08000412 100.38944294 20.19074347 97.27734375 23.984375 C93.08103892 28.16894796 88.54656759 30.06204265 83 32 C81.33324219 32.59167969 81.33324219 32.59167969 79.6328125 33.1953125 C57.89861582 39.55112053 28.57841312 38.81776505 8.140625 28.63671875 C4.17318595 25.60322064 0.52042857 22.65604436 -0.47851562 17.55786133 C-0.58894129 14.8682434 -0.52590847 12.24983167 -0.375 9.5625 C-0.34792969 8.64017578 -0.32085938 7.71785156 -0.29296875 6.76757812 C-0.22276119 4.5092348 -0.12452894 2.25588963 0 0 Z " fill="#1986CE" transform="translate(0,22)"/>
<path d="M0 0 C11.88 0 23.76 0 36 0 C36 5.28 36 10.56 36 16 C35.01 15.0925 34.02 14.185 33 13.25 C23.75018642 5.41616186 11.84926496 2.4943659 0 1 C0 0.67 0 0.34 0 0 Z " fill="#FCFDFE" transform="translate(64,0)"/>
<path d="M0 0 C0.33 0 0.66 0 1 0 C1 5.28 1 10.56 1 16 C-10.88 16 -22.76 16 -35 16 C-35 15.67 -35 15.34 -35 15 C-34.06800781 14.84144531 -33.13601562 14.68289062 -32.17578125 14.51953125 C-15.11933916 11.43215043 -15.11933916 11.43215043 -1 2 C-0.67 1.34 -0.34 0.68 0 0 Z " fill="#F5F7F9" transform="translate(99,84)"/>
<path d="M0 0 C11.88 0 23.76 0 36 0 C36 0.33 36 0.66 36 1 C34.94425781 1.12955078 34.94425781 1.12955078 33.8671875 1.26171875 C20.97111273 3.09679989 9.34771686 6.65228314 0 16 C0 10.72 0 5.44 0 0 Z " fill="#FDFDFE" transform="translate(0,0)"/>
<path d="M0 0 C1.65 1.65 3.3 3.3 5 5 C14.11263002 11.09900435 24.4237202 13.00225826 35 15 C35 15.33 35 15.66 35 16 C23.45 16 11.9 16 0 16 C0 10.72 0 5.44 0 0 Z " fill="#F8FAFA" transform="translate(0,84)"/>
<path d="M0 0 C2.4375 0.75 2.4375 0.75 4.4375 1.75 C4.625 5.125 4.625 5.125 4.4375 8.75 C1.4375 10.75 1.4375 10.75 -1.75 10.375 C-3.1421875 10.065625 -3.1421875 10.065625 -4.5625 9.75 C-5.89328101 3.33805513 -5.89328101 3.33805513 -4.4375 0.75 C-2.5625 -0.25 -2.5625 -0.25 0 0 Z " fill="#9EB6F7" transform="translate(90.5625,56.25)"/>
<path d="M0 0 C3 0.25 3 0.25 5 2.25 C5.25 5.25 5.25 5.25 5 8.25 C3 10.25 3 10.25 0 10.5 C-3 10.25 -3 10.25 -5 8.25 C-5.25 5.25 -5.25 5.25 -5 2.25 C-3 0.25 -3 0.25 0 0 Z " fill="#A0B6F7" transform="translate(90,76.75)"/>
<path d="M0 0 C3 0.25 3 0.25 5 2.25 C5.25 5.25 5.25 5.25 5 8.25 C3 10.25 3 10.25 0 10.5 C-3 10.25 -3 10.25 -5 8.25 C-5.25 5.25 -5.25 5.25 -5 2.25 C-3 0.25 -3 0.25 0 0 Z " fill="#A0B7F9" transform="translate(90,35.75)"/>
<path d="M0 0 C1.75 1.4375 1.75 1.4375 3 3 C0.525 4.485 0.525 4.485 -2 6 C-2 4.68 -2 3.36 -2 2 C-2.66 1.67 -3.32 1.34 -4 1 C-2.1875 0.3125 -2.1875 0.3125 0 0 Z " fill="#125474" transform="translate(93,86)"/>
<path d="M0 0 C0 0.99 0 1.98 0 3 C-0.66 3.66 -1.32 4.32 -2 5 C-5.625 4.625 -5.625 4.625 -9 4 C-9 3.67 -9 3.34 -9 3 C-6.03 2.01 -3.06 1.02 0 0 Z " fill="#2B8DD5" transform="translate(97,43)"/>
</svg>