<?xml version="1.0" encoding="UTF-8"?>
<svg version="1.1" xmlns="http://www.w3.org/2000/svg" width="500" height="165">
<path d="M0 0 C4.61598027 5.55460579 4.84005265 10.73353311 4.80639648 17.62084961 C4.81325974 18.60534592 4.82012299 19.58984222 4.82719421 20.60417175 C4.84545397 23.84954361 4.84162579 27.09443168 4.8359375 30.33984375 C4.84049966 32.60136573 4.84580534 34.86288633 4.8518219 37.12440491 C4.86075139 41.86123288 4.85833158 46.59789223 4.84838867 51.3347168 C4.83689904 57.39870002 4.85711175 63.46210092 4.88630581 69.52600765 C4.90466984 74.19551783 4.9043749 78.86488851 4.89866829 83.53442574 C4.8985151 85.76989115 4.90455724 88.00536603 4.91695976 90.24079704 C4.93187136 93.36915277 4.92119068 96.4964333 4.90405273 99.62475586 C4.91855469 101.00352905 4.91855469 101.00352905 4.93334961 102.41015625 C4.85648469 109.12574174 3.427767 113.54752843 -1.3515625 118.5078125 C-28.35393845 137.98684828 -69.11611413 138.81724953 -100.69848633 134.1706543 C-117.71650737 131.32616631 -135.94353638 127.41035984 -147.34765625 113.5625 C-149.32940537 110.58987633 -149.72430335 108.06261879 -149.74482727 104.58418274 C-149.75198257 103.75020462 -149.75913788 102.9162265 -149.76651001 102.05697632 C-149.76919891 101.14525665 -149.77188782 100.23353699 -149.7746582 99.29418945 C-149.7812294 98.33124466 -149.7878006 97.36829987 -149.79457092 96.37617493 C-149.81430629 93.18437625 -149.82596787 89.99262467 -149.8359375 86.80078125 C-149.84001303 85.71026144 -149.84408855 84.61974163 -149.84828758 83.49617577 C-149.86915059 77.72279423 -149.88345062 71.94943647 -149.89282227 66.17602539 C-149.90387952 60.21860058 -149.93827122 54.26155002 -149.97799397 48.30425739 C-150.00416688 43.71879899 -150.01251479 39.13342959 -150.01610374 34.54790306 C-150.02096891 32.35232202 -150.03258084 30.15674493 -150.05114174 27.96123695 C-150.07554404 24.8831195 -150.07456573 21.8059682 -150.06762695 18.7277832 C-150.08043701 17.82618469 -150.09324707 16.92458618 -150.10644531 15.9956665 C-150.0511742 9.24517637 -148.49082094 3.78912415 -143.80859375 -1.23046875 C-141.76416735 -2.64416786 -139.71830676 -4.01489916 -137.59765625 -5.3125 C-136.9015625 -5.74304687 -136.20546875 -6.17359375 -135.48828125 -6.6171875 C-100.78757394 -25.88206294 -31.21429719 -26.68703271 0 0 Z " fill="#064C6C" transform="translate(176.59765625,22.3125)"/>
<path d="M0 0 C3.67621689 3.44309095 5.56911616 6.8817929 6.4375 11.875 C5.46325827 17.9640108 2.06991152 22.379613 -2.6875 26.1875 C-22.57724437 39.90584705 -48.00455722 41.59610945 -71.375 41.4375 C-72.31483734 41.43479095 -73.25467468 41.43208191 -74.22299194 41.42929077 C-88.12203708 41.36857948 -101.62435816 40.89397118 -115.0625 37 C-115.73893555 36.80744629 -116.41537109 36.61489258 -117.11230469 36.41650391 C-128.30136424 33.10296994 -139.14695732 28.71914106 -146.0625 19 C-146.0625 18.34 -146.0625 17.68 -146.0625 17 C-146.7225 17 -147.3825 17 -148.0625 17 C-148.55643927 11.07272877 -147.58251274 6.87233401 -144.0625 2 C-141.61515153 -0.40223606 -138.98243614 -2.21332579 -136.0625 -4 C-135.36640625 -4.43054687 -134.6703125 -4.86109375 -133.953125 -5.3046875 C-99.59132131 -24.381413 -31.65138587 -25.15037508 0 0 Z " fill="#A3B8FB" transform="translate(175.0625,21)"/>
<path d="M0 0 C0.33 0 0.66 0 1 0 C1.02476851 4.19921466 1.04289246 8.39839029 1.05493164 12.59765625 C1.05995206 14.02539816 1.06676972 15.45313496 1.07543945 16.88085938 C1.08760553 18.93621079 1.09325128 20.99149407 1.09765625 23.046875 C1.10289307 24.28276367 1.10812988 25.51865234 1.11352539 26.79199219 C1.01879279 29.46895205 0.67298268 31.45136597 0 34 C-0.14625035 36.02350669 -0.24683203 38.05053334 -0.31640625 40.078125 C-0.35830078 41.23828125 -0.40019531 42.3984375 -0.44335938 43.59375 C-0.48267578 44.8003125 -0.52199219 46.006875 -0.5625 47.25 C-0.62727539 49.08304688 -0.62727539 49.08304688 -0.69335938 50.953125 C-0.79937355 53.9686392 -0.90143936 56.98423448 -1 60 C-1.94359375 60.14308594 -1.94359375 60.14308594 -2.90625 60.2890625 C-3.5971875 60.52367187 -4.288125 60.75828125 -5 61 C-6.03101947 63.31979381 -7.02936517 65.65429915 -8 68 C-9.75 70 -9.75 70 -12 71 C-16.21079371 71 -18.27012317 70.6203953 -21.5 67.875 C-23.47798094 64.08386986 -23.13111674 62.07202027 -22 58 C-20.4375 56.0625 -20.4375 56.0625 -19 55 C-19.969375 54.71125 -20.93875 54.4225 -21.9375 54.125 C-25 53 -25 53 -26 51 C-27.38058594 51.39832031 -27.38058594 51.39832031 -28.7890625 51.8046875 C-30.05492187 52.15789062 -31.32078125 52.51109375 -32.625 52.875 C-33.85476562 53.22304687 -35.08453125 53.57109375 -36.3515625 53.9296875 C-49.49346333 57.15155378 -62.54966097 57.40119487 -76 57.375 C-77.42749069 57.37518127 -77.42749069 57.37518127 -78.88381958 57.37536621 C-92.92021033 57.34995697 -106.40077909 56.79099269 -120 53 C-121.15757813 52.69964844 -122.31515625 52.39929688 -123.5078125 52.08984375 C-133.64311257 49.0959124 -144.25768337 44.79009556 -149.94921875 35.50390625 C-150.29597656 35.00761719 -150.64273438 34.51132813 -151 34 C-151.66 34 -152.32 34 -153 34 C-153 23.44 -153 12.88 -153 2 C-152.34 2 -151.68 2 -151 2 C-150.484375 2.86625 -149.96875 3.7325 -149.4375 4.625 C-142.56034047 15.37056176 -126.97904068 19.26088251 -115.3828125 22.10546875 C-113.92381489 22.4129975 -112.46262676 22.71022267 -111 23 C-110.1219873 23.18022705 -109.24397461 23.3604541 -108.33935547 23.54614258 C-98.8042476 25.27119879 -89.34852991 25.33833919 -79.69140625 25.31567383 C-76.90063809 25.31252889 -74.11094935 25.33599894 -71.3203125 25.36132812 C-56.19825769 25.41567056 -40.84030735 24.38870252 -26.5 19.1875 C-25.76499268 18.93033203 -25.02998535 18.67316406 -24.27270508 18.40820312 C-14.39347708 14.83904571 -5.93125497 11.11369947 -0.6875 1.625 C-0.3471875 0.820625 -0.3471875 0.820625 0 0 Z " fill="#1B85CE" transform="translate(180,36)"/>
<path d="M0 0 C0.33 0 0.66 0 1 0 C1.04969106 4.16258147 1.08585642 8.32500261 1.10986328 12.48779297 C1.11987856 13.90188609 1.13349474 15.31595873 1.15087891 16.72998047 C1.17532559 18.77055946 1.18652784 20.81086303 1.1953125 22.8515625 C1.20578613 24.07697754 1.21625977 25.30239258 1.22705078 26.56494141 C0.99746626 30.03833297 0.2511457 32.76606976 -1 36 C-1.66 36 -2.32 36 -3 36 C-3.18046875 36.89589844 -3.3609375 37.79179688 -3.546875 38.71484375 C-5.46097934 43.04216028 -8.19396829 44.50727793 -12.25 46.5625 C-12.99217773 46.94672119 -13.73435547 47.33094238 -14.49902344 47.72680664 C-23.83714875 52.27017114 -33.83339439 54.22108899 -44 56 C-44.95366455 56.18473877 -45.9073291 56.36947754 -46.88989258 56.55981445 C-55.82238568 58.15219918 -64.61011447 58.33926115 -73.65454102 58.31567383 C-76.16662576 58.31252616 -78.67751388 58.33601953 -81.18945312 58.36132812 C-102.60120915 58.44425951 -129.83819012 55.5843022 -146.953125 41.37890625 C-148 40 -148 40 -148 38 C-148.66 38 -149.32 38 -150 38 C-152.4136476 35.63526526 -152.97576729 34.20673279 -153.37231445 30.82373047 C-153.3693335 29.60057129 -153.36635254 28.37741211 -153.36328125 27.1171875 C-153.36377975 26.46170929 -153.36427826 25.80623108 -153.36479187 25.13088989 C-153.36245873 23.75080317 -153.35277502 22.37071159 -153.33618164 20.99072266 C-153.31249934 18.87494083 -153.31563662 16.76041275 -153.32226562 14.64453125 C-153.2792256 4.2792256 -153.2792256 4.2792256 -151 2 C-150.74089844 2.556875 -150.48179687 3.11375 -150.21484375 3.6875 C-145.07158035 12.99885149 -135.95696651 16.94544162 -126.28515625 20.28125 C-122.54875836 21.3339811 -118.79260174 22.18381629 -115 23 C-113.16260254 23.39989136 -113.16260254 23.39989136 -111.28808594 23.80786133 C-100.62736245 25.97181539 -90.25053736 26.46608225 -79.38964844 26.39111328 C-76.63425918 26.37505397 -73.88034482 26.39104913 -71.125 26.41015625 C-57.26430265 26.42575314 -43.82461533 25.07153177 -30.375 21.625 C-25.41641503 20.54249201 -21.53654858 21.96184049 -17 24 C-17.845625 24.845625 -18.69125 25.69125 -19.5625 26.5625 C-21.85409114 29.30980529 -21.99767088 29.86258165 -22.0625 33.6875 C-21.23443212 36.95898527 -21.23443212 36.95898527 -19.375 39 C-15.88418213 40.46981805 -13.60851044 39.98413921 -10 39 C-6.83543833 36.1518945 -6.46904214 33.12757081 -6 29 C-4.68 29.33 -3.36 29.66 -2 30 C-1.96241577 28.84999512 -1.96241577 28.84999512 -1.92407227 27.67675781 C-1.80798577 24.20100717 -1.68531634 20.72551908 -1.5625 17.25 C-1.52318359 16.0434375 -1.48386719 14.836875 -1.44335938 13.59375 C-1.40146484 12.43359375 -1.35957031 11.2734375 -1.31640625 10.078125 C-1.26141968 8.47565918 -1.26141968 8.47565918 -1.20532227 6.84082031 C-1.03013091 4.41688848 -0.68801513 2.32113288 0 0 Z " fill="#0A699E" transform="translate(180,66)"/>
<path d="M0 0 C5.89411944 3.81384199 8.36386328 8.17814183 10 15 C10.96842381 24.07489279 10.11610951 31.32583574 5 39 C5.34915155 42.49151548 7.13898407 45.0871055 9 48 C7.37536158 48.05395478 5.75021459 48.09277195 4.125 48.125 C2.76761719 48.15980469 2.76761719 48.15980469 1.3828125 48.1953125 C-1 48 -1 48 -3 46 C-5.18751874 45.959329 -7.37729197 46.01656465 -9.5625 46.125 C-15.89532622 46.18333719 -20.8472725 45.90422268 -26 42 C-31.77370321 36.10159478 -33.68244591 29.10821455 -34 21 C-33.44663087 13.2306974 -31.01655466 6.49298378 -25.125 1.1875 C-17.1588685 -4.38879205 -8.49140195 -4.6462388 0 0 Z M-18 10 C-21.11163479 13.88954349 -22.14084984 18.07025545 -22 23 C-21.13004239 27.722627 -19.84877069 31.08593925 -16.5625 34.625 C-13.86469203 36.44246577 -13.86469203 36.44246577 -10 35 C-11.98 32.36 -13.96 29.72 -16 27 C-7.63076923 26.63076923 -7.63076923 26.63076923 -4.4375 28.5 C-3.963125 28.995 -3.48875 29.49 -3 30 C-1.09962924 24.29888772 -1.26541957 18.16507916 -3.1875 12.5 C-5.21625912 9.70171156 -6.8586459 8.41360935 -10 7 C-13.68553144 7 -15.03759752 7.8522582 -18 10 Z " fill="#5856D8" transform="translate(267,66)"/>
<path d="M0 0 C0.33 0 0.66 0 1 0 C1.02476851 4.19921466 1.04289246 8.39839029 1.05493164 12.59765625 C1.05995206 14.02539816 1.06676972 15.45313496 1.07543945 16.88085938 C1.08760553 18.93621079 1.09325128 20.99149407 1.09765625 23.046875 C1.10551147 24.90070801 1.10551147 24.90070801 1.11352539 26.79199219 C1.01879279 29.46895205 0.67298268 31.45136597 0 34 C-0.14625035 36.02350669 -0.24683203 38.05053334 -0.31640625 40.078125 C-0.35830078 41.23828125 -0.40019531 42.3984375 -0.44335938 43.59375 C-0.48267578 44.8003125 -0.52199219 46.006875 -0.5625 47.25 C-0.60568359 48.47203125 -0.64886719 49.6940625 -0.69335938 50.953125 C-0.79937355 53.9686392 -0.90143936 56.98423448 -1 60 C-1.6290625 60.09539062 -2.258125 60.19078125 -2.90625 60.2890625 C-3.5971875 60.52367187 -4.288125 60.75828125 -5 61 C-6.03101947 63.31979381 -7.02936517 65.65429915 -8 68 C-9.75 70 -9.75 70 -12 71 C-16.21079371 71 -18.27012317 70.6203953 -21.5 67.875 C-23.47798094 64.08386986 -23.13111674 62.07202027 -22 58 C-20.4375 56.0625 -20.4375 56.0625 -19 55 C-19.969375 54.731875 -20.93875 54.46375 -21.9375 54.1875 C-22.948125 53.795625 -23.95875 53.40375 -25 53 C-25.495 51.515 -25.495 51.515 -26 50 C-24.04350603 49.16235732 -22.08474444 48.33000941 -20.125 47.5 C-19.03445312 47.0359375 -17.94390625 46.571875 -16.8203125 46.09375 C-14 45 -14 45 -12 45 C-12.495 43.515 -12.495 43.515 -13 42 C-14.134375 41.731875 -15.26875 41.46375 -16.4375 41.1875 C-17.613125 40.795625 -18.78875 40.40375 -20 40 C-21.4375 36.875 -21.4375 36.875 -22 34 C-22.66 34 -23.32 34 -24 34 C-24 30.37 -24 26.74 -24 23 C-24.66 23.33 -25.32 23.66 -26 24 C-26.33 23.01 -26.66 22.02 -27 21 C-26.15566406 20.58363281 -25.31132812 20.16726562 -24.44140625 19.73828125 C-20.90311257 17.9510614 -17.40504485 16.10723502 -13.9375 14.1875 C-13.33873047 13.86974609 -12.73996094 13.55199219 -12.12304688 13.22460938 C-6.53223784 10.10771803 -2.53884529 6.00090706 0 0 Z " fill="#1E84CC" transform="translate(180,36)"/>
<path d="M0 0 C3.97156771 2.21491276 7.18560639 4.68371278 9.25 8.8125 C9.25 10.7925 9.25 12.7725 9.25 14.8125 C5.29 14.8125 1.33 14.8125 -2.75 14.8125 C-3.08 13.1625 -3.41 11.5125 -3.75 9.8125 C-6.39 9.8125 -9.03 9.8125 -11.75 9.8125 C-12.52242269 11.64950789 -12.52242269 11.64950789 -12.75 13.8125 C-9.76906513 17.98796112 -4.66246527 18.40815577 0.0234375 19.65234375 C4.06872499 21.10688417 6.97481395 23.11225193 9.5625 26.5625 C11.05856597 31.45871591 10.97915569 35.97596285 8.75 40.5625 C6.11171124 44.57968533 2.83300919 46.51946402 -1.75 47.8125 C-8.83547048 48.81292305 -14.89931492 48.10392231 -20.75 43.8125 C-25.12108484 39.10517787 -25.75 37.46269169 -25.75 30.8125 C-21.79 30.8125 -17.83 30.8125 -13.75 30.8125 C-13.09 32.4625 -12.43 34.1125 -11.75 35.8125 C-7.26866426 36.53506829 -7.26866426 36.53506829 -2.75 36.8125 C-2.75 34.8325 -2.75 32.8525 -2.75 30.8125 C-3.29527344 30.64234375 -3.84054688 30.4721875 -4.40234375 30.296875 C-19.05801857 25.58701711 -19.05801857 25.58701711 -23.3125 21.125 C-25.17653695 16.82961051 -25.54436431 13.42146793 -24.75 8.8125 C-22.55568776 3.96672714 -19.70795467 1.61271128 -14.9609375 -0.49609375 C-9.68258277 -2.14674532 -5.2115051 -1.65030995 0 0 Z " fill="#5756DE" transform="translate(219.75,64.1875)"/>
<path d="M0 0 C23 0 23 0 31 4 C35.25749043 9.10898851 35.62057806 13.61741249 35.390625 20.1875 C34.71742402 25.03454705 32.51313909 27.67027171 28.9375 30.8125 C23.47852566 34.15832298 17.1768211 33.06115664 11 33 C11 37.62 11 42.24 11 47 C7.37 47 3.74 47 0 47 C0 31.49 0 15.98 0 0 Z M11 10 C11 14.62 11 19.24 11 24 C17.5169142 24.16646987 17.5169142 24.16646987 23 22 C24.55938978 18.88122044 24.3607834 16.42744229 24 13 C21.09033541 10.18126243 18.58744626 9.84020832 14.6875 9.8125 C12.8621875 9.9053125 12.8621875 9.9053125 11 10 Z " fill="#5856DE" transform="translate(333,64)"/>
<path d="M0 0 C11.88 0 23.76 0 36 0 C36 3.3 36 6.6 36 10 C32.04 10 28.08 10 24 10 C24 22.21 24 34.42 24 47 C20.37 47 16.74 47 13 47 C13 34.79 13 22.58 13 10 C8.71 10 4.42 10 0 10 C0 6.7 0 3.4 0 0 Z " fill="#5756DC" transform="translate(428,64)"/>
<path d="M0 0 C11.55 0 23.1 0 35 0 C35 3.3 35 6.6 35 10 C31.04 10 27.08 10 23 10 C23 22.21 23 34.42 23 47 C19.37 47 15.74 47 12 47 C12 34.79 12 22.58 12 10 C8.04 10 4.08 10 0 10 C0 6.7 0 3.4 0 0 Z " fill="#5856DE" transform="translate(371,64)"/>
<path d="M0 0 C3.96 0 7.92 0 12 0 C12.33 12.21 12.66 24.42 13 37 C18.61 37 24.22 37 30 37 C31 38 31 38 31 47 C20.77 47 10.54 47 0 47 C0 31.49 0 15.98 0 0 Z " fill="#5655DB" transform="translate(282,64)"/>
<path d="M0 0 C3.63 0 7.26 0 11 0 C11 15.51 11 31.02 11 47 C7.37 47 3.74 47 0 47 C0 31.49 0 15.98 0 0 Z " fill="#5857D7" transform="translate(412,64)"/>
<path d="M0 0 C0.33 0 0.66 0 1 0 C1 7.92 1 15.84 1 24 C-0.32 24.33 -1.64 24.66 -3 25 C-4.03101947 27.31979381 -5.02936517 29.65429915 -6 32 C-7.75 34 -7.75 34 -10 35 C-14.21079371 35 -16.27012317 34.6203953 -19.5 31.875 C-21.47798094 28.08386986 -21.13111674 26.07202027 -20 22 C-18.4375 20.0625 -18.4375 20.0625 -17 19 C-17.969375 18.731875 -18.93875 18.46375 -19.9375 18.1875 C-20.948125 17.795625 -21.95875 17.40375 -23 17 C-23.33 16.01 -23.66 15.02 -24 14 C-23.23816406 13.70867187 -22.47632813 13.41734375 -21.69140625 13.1171875 C-13.5000638 9.86519387 -6.26084705 6.27942523 0 0 Z " fill="#0A69A0" transform="translate(178,72)"/>
<path d="M0 0 C11.55 0 23.1 0 35 0 C35 3.3 35 6.6 35 10 C31.37 10 27.74 10 24 10 C24 9.67 24 9.34 24 9 C27.3 9 30.6 9 34 9 C34 6.36 34 3.72 34 1 C25.75 1 17.5 1 9 1 C11.01151263 7.77489892 11.01151263 7.77489892 14 9 C14.33 21.54 14.66 34.08 15 47 C14.01 47 13.02 47 12 47 C12 34.79 12 22.58 12 10 C8.04 10 4.08 10 0 10 C0 6.7 0 3.4 0 0 Z " fill="#5A59CE" transform="translate(371,64)"/>
<path d="M0 0 C2.5 2.125 2.5 2.125 4 5 C4.07481382 9.26438773 3.64839572 11.23718151 0.875 14.5 C-2.97148295 16.50686067 -4.88546541 16.27176524 -9 15 C-11.5 12.875 -11.5 12.875 -13 10 C-13.07481382 5.73561227 -12.64839572 3.76281849 -9.875 0.5 C-6.02851705 -1.50686067 -4.11453459 -1.27176524 0 0 Z " fill="#A1B9FB" transform="translate(170,91)"/>
<path d="M0 0 C2.5 2.125 2.5 2.125 4 5 C3.94016186 8.47061229 3.67167343 10.88054428 1.875 13.875 C-1.11945572 15.67167343 -3.52938771 15.94016186 -7 16 C-9.80189446 14.23358828 -11.51524911 12.96950178 -13 10 C-13.4375 7.1875 -13.4375 7.1875 -13 4 C-8.87629927 -0.72716913 -6.27896085 -2.09298695 0 0 Z " fill="#9EB8FC" transform="translate(170,60)"/>
<path d="M0 0 C2.5 2.125 2.5 2.125 4 5 C4 8.7455316 3.81498619 10.98941713 1.4375 13.9375 C-2.10022275 15.47958427 -5.21171188 15.80568909 -9 15 C-11.5625 13 -11.5625 13 -13 10 C-13.26977084 7.11120389 -13.00637432 4.72486146 -12 2 C-8.22085119 -1.66799737 -4.89792426 -1.4248507 0 0 Z " fill="#9FB9F9" transform="translate(170,122)"/>
<path d="M0 0 C-1.7578125 0.91145833 -3.515625 1.82291667 -5.2734375 2.734375 C-7.45274172 4.33187402 -8.11300844 5.44546432 -9 8 C-9.24110759 11.05014928 -9.24110759 11.05014928 -9.125 14.25 C-9.10695312 15.32765625 -9.08890625 16.4053125 -9.0703125 17.515625 C-9.04710937 18.33546875 -9.02390625 19.1553125 -9 20 C-8.34 20 -7.68 20 -7 20 C-7 20.66 -7 21.32 -7 22 C-5.35 21.67 -3.7 21.34 -2 21 C-1.67 18.69 -1.34 16.38 -1 14 C0.83362564 14.69193421 2.66710975 15.38424512 4.5 16.078125 C6.28360549 16.73582952 8.07649421 17.36858226 9.875 17.984375 C11.3290625 18.48710938 11.3290625 18.48710938 12.8125 19 C13.72644531 19.309375 14.64039063 19.61875 15.58203125 19.9375 C17.99498023 20.99779422 19.30283427 22.01527463 21 24 C20.67 24.66 20.34 25.32 20 26 C19.38125 25.401875 18.7625 24.80375 18.125 24.1875 C14.01508346 21.31055842 9.81828604 20.23497817 5 19 C3.84188612 21.94729537 3.84188612 21.94729537 4 25 C5.32 25.33 6.64 25.66 8 26 C8 26.66 8 27.32 8 28 C0.59302582 26.86734399 -5.76347499 25.65414115 -10.9375 19.8125 C-12.45597309 15.7930124 -12.6731919 12.24110897 -12 8 C-9.48026455 2.96052911 -6.02759959 -2.00919986 0 0 Z " fill="#5956DB" transform="translate(207,65)"/>
<path d="M0 0 C7.59 0 15.18 0 23 0 C23 0.33 23 0.66 23 1 C16.07 1 9.14 1 2 1 C2 15.19 2 29.38 2 44 C3.98 43.505 3.98 43.505 6 43 C6 43.66 6 44.32 6 45 C7.32 45 8.64 45 10 45 C10 41.37 10 37.74 10 34 C10.33 34 10.66 34 11 34 C11 38.29 11 42.58 11 47 C7.37 47 3.74 47 0 47 C0 31.49 0 15.98 0 0 Z " fill="#5A59C2" transform="translate(333,64)"/>
<path d="M0 0 C0.33 0 0.66 0 1 0 C1.04969106 4.16258147 1.08585642 8.32500261 1.10986328 12.48779297 C1.11987856 13.90188609 1.13349474 15.31595873 1.15087891 16.72998047 C1.17532559 18.77055946 1.18652784 20.81086303 1.1953125 22.8515625 C1.20578613 24.07697754 1.21625977 25.30239258 1.22705078 26.56494141 C0.99746626 30.03833297 0.2511457 32.76606976 -1 36 C-1.66 36 -2.32 36 -3 36 C-3.144375 36.886875 -3.28875 37.77375 -3.4375 38.6875 C-5.67299944 43.4267588 -9.27662655 45.00842836 -14 47 C-14.66 47 -15.32 47 -16 47 C-16 46.34 -16 45.68 -16 45 C-15.01 44.505 -15.01 44.505 -14 44 C-14.99 43.01 -15.98 42.02 -17 41 C-15.906875 40.7525 -14.81375 40.505 -13.6875 40.25 C-9.85916036 38.95225775 -8.76340368 38.52680737 -7 35 C-6.27954633 31.84881675 -6.27954633 31.84881675 -6 29 C-4.68 29.33 -3.36 29.66 -2 30 C-1.97494385 29.23333008 -1.9498877 28.46666016 -1.92407227 27.67675781 C-1.80798577 24.20100717 -1.68531634 20.72551908 -1.5625 17.25 C-1.50352539 15.44015625 -1.50352539 15.44015625 -1.44335938 13.59375 C-1.40146484 12.43359375 -1.35957031 11.2734375 -1.31640625 10.078125 C-1.27974854 9.00981445 -1.24309082 7.94150391 -1.20532227 6.84082031 C-1.03013091 4.41688848 -0.68801513 2.32113288 0 0 Z " fill="#176695" transform="translate(180,66)"/>
<path d="M0 0 C0.99 0 1.98 0 3 0 C2.85904936 1.6254308 2.71207913 3.25034051 2.5625 4.875 C2.48128906 5.77992187 2.40007812 6.68484375 2.31640625 7.6171875 C2 10 2 10 1 12 C1.66 12.33 2.32 12.66 3 13 C2.34 13 1.68 13 1 13 C1.14075205 15.93782469 1.2873838 18.87515171 1.4375 21.8125 C1.47681641 22.64587891 1.51613281 23.47925781 1.55664062 24.33789062 C1.59853516 25.14033203 1.64042969 25.94277344 1.68359375 26.76953125 C1.73858032 27.87711792 1.73858032 27.87711792 1.79467773 29.00708008 C1.94842141 31.207495 1.94842141 31.207495 3 34 C5.31 34.33 7.62 34.66 10 35 C10 23.45 10 11.9 10 0 C10.33 0 10.66 0 11 0 C11 12.21 11 24.42 11 37 C7.37 37 3.74 37 0 37 C0 24.79 0 12.58 0 0 Z " fill="#5957C2" transform="translate(441,74)"/>
<path d="M0 0 C3.96 0 7.92 0 12 0 C12.66 1.65 13.32 3.3 14 5 C18.48133574 5.72256829 18.48133574 5.72256829 23 6 C23 6.66 23 7.32 23 8 C21.37536158 8.05395478 19.75021459 8.09277195 18.125 8.125 C16.76761719 8.15980469 16.76761719 8.15980469 15.3828125 8.1953125 C13 8 13 8 11 6 C10.875 3.375 10.875 3.375 11 1 C10.01 1.66 9.02 2.32 8 3 C8 3.66 8 4.32 8 5 C8.66 5 9.32 5 10 5 C9.67 5.99 9.34 6.98 9 8 C8.01 7.67 7.02 7.34 6 7 C6 6.34 6 5.68 6 5 C5.34 4.67 4.68 4.34 4 4 C3.5430902 8.0008924 3.5430902 8.0008924 6 10.125 C6.66 10.74375 7.32 11.3625 8 12 C8 12.66 8 13.32 8 14 C3.77036532 12.48941618 2.08753827 9.87685679 0 6 C0 4.02 0 2.04 0 0 Z " fill="#5453CD" transform="translate(194,95)"/>
<path d="M0 0 C0.33 0 0.66 0 1 0 C1 15.18 1 30.36 1 46 C-1.97 46 -4.94 46 -8 46 C-8 43.69 -8 41.38 -8 39 C-7.01 39.66 -6.02 40.32 -5 41 C-4.01 40.505 -4.01 40.505 -3 40 C-2.34 40.33 -1.68 40.66 -1 41 C-0.67 27.47 -0.34 13.94 0 0 Z " fill="#5353D3" transform="translate(421,65)"/>
<path d="M0 0 C0.99 0.495 0.99 0.495 2 1 C2.33 12.88 2.66 24.76 3 37 C2.01 37 1.02 37 0 37 C0 24.79 0 12.58 0 0 Z " fill="#5C5CC2" transform="translate(383,74)"/>
<path d="M0 0 C0.66 0 1.32 0 2 0 C2.99 1.98 3.98 3.96 5 6 C4.01 6 3.02 6 2 6 C2.01047363 6.71655762 2.02094727 7.43311523 2.03173828 8.17138672 C2.07321299 11.40588905 2.09929892 14.64033553 2.125 17.875 C2.14175781 19.00292969 2.15851562 20.13085938 2.17578125 21.29296875 C2.18222656 22.36933594 2.18867188 23.44570313 2.1953125 24.5546875 C2.20578613 25.54968262 2.21625977 26.54467773 2.22705078 27.56982422 C2 30 2 30 0 32 C0 21.44 0 10.88 0 0 Z " fill="#3681B6" transform="translate(27,38)"/>
<path d="M0 0 C2.03488634 3.38587989 2.28587191 6.08840444 2.37890625 10.0078125 C2.41306641 11.15894531 2.44722656 12.31007813 2.48242188 13.49609375 C2.50884766 14.69363281 2.53527344 15.89117187 2.5625 17.125 C2.62226061 19.50270918 2.6858637 21.88032591 2.75390625 24.2578125 C2.77783447 25.3111377 2.8017627 26.36446289 2.82641602 27.44970703 C2.8347801 29.99076288 2.8347801 29.99076288 4 32 C3.0625 34.125 3.0625 34.125 2 36 C-0.03091001 31.79411888 -0.23353223 28.37416548 -0.1953125 23.73046875 C-0.1924826 23.04946609 -0.18965271 22.36846344 -0.18673706 21.66682434 C-0.17560525 19.50686545 -0.15051457 17.34733206 -0.125 15.1875 C-0.11496111 13.71680289 -0.10583685 12.24609924 -0.09765625 10.77539062 C-0.07568913 7.18345714 -0.0412082 3.59177015 0 0 Z " fill="#114660" transform="translate(27,100)"/>
<path d="M0 0 C-1.7578125 0.91145833 -3.515625 1.82291667 -5.2734375 2.734375 C-7.45274172 4.33187402 -8.11300844 5.44546432 -9 8 C-9.24110759 11.05014928 -9.24110759 11.05014928 -9.125 14.25 C-9.10695312 15.32765625 -9.08890625 16.4053125 -9.0703125 17.515625 C-9.04710937 18.33546875 -9.02390625 19.1553125 -9 20 C-8.34 20 -7.68 20 -7 20 C-7 20.66 -7 21.32 -7 22 C-6.01 22 -5.02 22 -4 22 C-4 22.66 -4 23.32 -4 24 C-2.35 24 -0.7 24 1 24 C1 24.66 1 25.32 1 26 C-3.86831281 25.54713369 -6.48559226 24.41678531 -10 21 C-12.54141035 16.76135406 -12.67875784 12.82672239 -12 8 C-9.48026455 2.96052911 -6.02759959 -2.00919986 0 0 Z " fill="#5B57C1" transform="translate(207,65)"/>
<path d="M0 0 C4.43458973 1.3937282 6.87378374 3.60582235 10 7 C9.67 7.66 9.34 8.32 9 9 C7.68 8.01 6.36 7.02 5 6 C4.67 6.66 4.34 7.32 4 8 C2.35 7.67 0.7 7.34 -1 7 C-0.01 8.485 -0.01 8.485 1 10 C1.1953125 12.26171875 1.1953125 12.26171875 1.125 14.6875 C1.10695313 15.49574219 1.08890625 16.30398437 1.0703125 17.13671875 C1.03550781 18.05904297 1.03550781 18.05904297 1 19 C0.67 19 0.34 19 0 19 C-0.33 16.69 -0.66 14.38 -1 12 C-3.64 11.01 -6.28 10.02 -9 9 C-9 8.67 -9 8.34 -9 8 C-7.02 8 -5.04 8 -3 8 C-3 7.01 -3 6.02 -3 5 C-1.02 5 0.96 5 3 5 C3 4.01 3 3.02 3 2 C2.01 2 1.02 2 0 2 C0 1.34 0 0.68 0 0 Z " fill="#5653C9" transform="translate(357,65)"/>
<path d="M0 0 C2.81256281 -0.02684312 5.62487241 -0.04676188 8.4375 -0.0625 C9.23994141 -0.07087891 10.04238281 -0.07925781 10.86914062 -0.08789062 C12.91295221 -0.0965143 14.95683902 -0.0522815 17 0 C18 1 18 1 18.09765625 3.06640625 C18.08605469 3.89011719 18.07445312 4.71382813 18.0625 5.5625 C18.05347656 6.38878906 18.04445313 7.21507813 18.03515625 8.06640625 C18.02355469 8.70449219 18.01195312 9.34257813 18 10 C17.34 10 16.68 10 16 10 C16 7.36 16 4.72 16 2 C10.39 2 4.78 2 -1 2 C-0.67 1.34 -0.34 0.68 0 0 Z " fill="#5150BE" transform="translate(295,101)"/>
<path d="M0 0 C3.875 3.75 3.875 3.75 5 6 C5 7.98 5 9.96 5 12 C1.04 12 -2.92 12 -7 12 C-6.67 11.01 -6.34 10.02 -6 9 C-3.03 9 -0.06 9 3 9 C2.01 6.03 1.02 3.06 0 0 Z " fill="#5959BB" transform="translate(224,67)"/>
<path d="M0 0 C3.96 0 7.92 0 12 0 C12.66 1.65 13.32 3.3 14 5 C18.48133574 5.72256829 18.48133574 5.72256829 23 6 C23 6.66 23 7.32 23 8 C21.37536158 8.05395478 19.75021459 8.09277195 18.125 8.125 C16.76761719 8.15980469 16.76761719 8.15980469 15.3828125 8.1953125 C13 8 13 8 11 6 C11 4.35 11 2.7 11 1 C7.7 1 4.4 1 1 1 C1 2.65 1 4.3 1 6 C0.67 6 0.34 6 0 6 C0 4.02 0 2.04 0 0 Z " fill="#5957BD" transform="translate(194,95)"/>
<path d="M0 0 C1.83362564 0.69193421 3.66710975 1.38424512 5.5 2.078125 C7.28360549 2.73582952 9.07649421 3.36858226 10.875 3.984375 C12.3290625 4.48710938 12.3290625 4.48710938 13.8125 5 C15.18341797 5.4640625 15.18341797 5.4640625 16.58203125 5.9375 C18.99498023 6.99779422 20.30283427 8.01527463 22 10 C21.67 10.66 21.34 11.32 21 12 C20.360625 11.401875 19.72125 10.80375 19.0625 10.1875 C14.06582677 6.61844769 8.22626295 4.39745842 2 5 C1.34 3.35 0.68 1.7 0 0 Z " fill="#5A55C4" transform="translate(206,79)"/>
<path d="M0 0 C2.5625 2.0625 2.5625 2.0625 5 5 C5.1526226 9.3497442 4.71471806 11.2257221 1.75 14.4375 C-1.1811251 16.10291199 -2.6946094 16.37775893 -6 16 C-6.33 15.34 -6.66 14.68 -7 14 C-6.43410156 13.87882812 -5.86820313 13.75765625 -5.28515625 13.6328125 C-4.55167969 13.46523437 -3.81820312 13.29765625 -3.0625 13.125 C-2.33160156 12.96257812 -1.60070312 12.80015625 -0.84765625 12.6328125 C1.20700294 12.17038477 1.20700294 12.17038477 2 10 C2.25797575 6.04437178 2.09440189 3.40340307 0 0 Z " fill="#86B4F3" transform="translate(169,91)"/>
<path d="M0 0 C1.65 0 3.3 0 5 0 C5 0.66 5 1.32 5 2 C5.680625 1.938125 6.36125 1.87625 7.0625 1.8125 C10.14771564 2.00942866 12.304319 2.90644011 15.0859375 4.19921875 C18.29496653 5.54177171 21.61375704 6.22769898 25 7 C25 7.33 25 7.66 25 8 C17.09612795 7.59117903 5.80140514 5.80140514 0 0 Z " fill="#89B7FA" transform="translate(44,51)"/>
<path d="M0 0 C0.33 0 0.66 0 1 0 C1 9.9 1 19.8 1 30 C0.67 30 0.34 30 0 30 C0 22.74 0 15.48 0 8 C-0.66 8 -1.32 8 -2 8 C-1.125 2.25 -1.125 2.25 0 0 Z " fill="#4580AD" transform="translate(180,36)"/>
<path d="M0 0 C10.23 0.33 20.46 0.66 31 1 C31 1.33 31 1.66 31 2 C26.90733909 2.21690267 22.81425802 2.41378687 18.71972656 2.59204102 C17.32656029 2.65552913 15.93363335 2.72451436 14.54101562 2.79907227 C12.54107702 2.90519436 10.54004394 2.99001904 8.5390625 3.07421875 C7.33459473 3.13182373 6.13012695 3.18942871 4.88916016 3.2487793 C3.45902588 3.12563354 3.45902588 3.12563354 2 3 C1.34 2.01 0.68 1.02 0 0 Z " fill="#03527B" transform="translate(81,123)"/>
<path d="M0 0 C0.33 0 0.66 0 1 0 C1.6887148 11.82293733 1.6887148 11.82293733 -0.875 15.6875 C-3 18 -3 18 -5 19 C-5 18.01 -5 17.02 -5 16 C-4.34 16 -3.68 16 -3 16 C-3.66 14.35 -4.32 12.7 -5 11 C-3.35 10.67 -1.7 10.34 0 10 C0 6.7 0 3.4 0 0 Z " fill="#5B59C6" transform="translate(367,75)"/>
<path d="M0 0 C2.375 -0.1875 2.375 -0.1875 5 0 C5.66 0.99 6.32 1.98 7 3 C5 6 5 6 2.875 6.6875 C2.25625 6.790625 1.6375 6.89375 1 7 C1 6.01 1 5.02 1 4 C0.34 3.67 -0.32 3.34 -1 3 C-0.67 2.01 -0.34 1.02 0 0 Z " fill="#5552E5" transform="translate(214,87)"/>
<path d="M0 0 C0.33 0.66 0.66 1.32 1 2 C0.38511719 2.04898438 -0.22976562 2.09796875 -0.86328125 2.1484375 C-1.67152344 2.22320312 -2.47976562 2.29796875 -3.3125 2.375 C-4.51326172 2.47941406 -4.51326172 2.47941406 -5.73828125 2.5859375 C-8.27224441 2.89564426 -8.27224441 2.89564426 -11 5 C-11.72965366 7.56282742 -11.72965366 7.56282742 -12 10 C-12.33 10 -12.66 10 -13 10 C-13.375 7.3125 -13.375 7.3125 -13 4 C-8.81637992 -0.79585717 -6.38656631 -1.87840186 0 0 Z " fill="#83B7F9" transform="translate(170,60)"/>
<path d="M0 0 C5.98993047 -0.3152595 9.63560356 0.31780178 15 3 C12 5 12 5 10 5 C9.67 4.34 9.34 3.68 9 3 C6.87423218 2.53348793 6.87423218 2.53348793 4.4375 2.375 C3.61121094 2.30023438 2.78492188 2.22546875 1.93359375 2.1484375 C1.29550781 2.09945312 0.65742188 2.05046875 0 2 C0 1.34 0 0.68 0 0 Z " fill="#5958C2" transform="translate(208,63)"/>
<path d="M0 0 C2.58422459 0.11418667 5.16679513 0.24092362 7.75 0.375 C8.47960937 0.4059375 9.20921875 0.436875 9.9609375 0.46875 C13.73942656 0.6748494 16.77946668 0.91512843 20 3 C17.22858283 3.08089542 14.45952181 3.14044062 11.6875 3.1875 C10.90181641 3.21263672 10.11613281 3.23777344 9.30664062 3.26367188 C8.54931641 3.27333984 7.79199219 3.28300781 7.01171875 3.29296875 C6.31522217 3.3086792 5.61872559 3.32438965 4.90112305 3.34057617 C2.45510217 2.90238443 1.57297914 1.86562642 0 0 Z " fill="#A6B6E9" transform="translate(120,5)"/>
<path d="M0 0 C-4.8 3.86666667 -4.8 3.86666667 -7.25 5.5 C-9.29936233 7.25659628 -9.63705624 8.36865777 -10 11 C-10.33 11 -10.66 11 -11 11 C-10.7618484 6.87203885 -10.60339108 4.65367367 -7.75 1.5625 C-4.8188749 -0.10291199 -3.3053906 -0.37775893 0 0 Z " fill="#8BB3F3" transform="translate(168,90)"/>
<path d="M0 0 C-3.732388 3.57011026 -8.0949989 4.10913442 -13 5 C-10.57207891 1.23672231 -10.57207891 1.23672231 -8.1875 0.25 C-5.44459813 -0.0634745 -2.75800578 -0.06268195 0 0 Z " fill="#0E6593" transform="translate(164,113)"/>
<path d="M0 0 C0 0.99 0 1.98 0 3 C-0.66 3.66 -1.32 4.32 -2 5 C-2.71927295 7.31765729 -3.3909893 9.65095874 -4 12 C-4.99 12 -5.98 12 -7 12 C-5.63855967 6.80177328 -3.53269829 3.90456127 0 0 Z " fill="#5854C6" transform="translate(242,67)"/>
<path d="M0 0 C0.99 1.32 1.98 2.64 3 4 C2.01 6.31 1.02 8.62 0 11 C-2 9 -2 9 -2.01171875 7.08984375 C-1.11111111 1.11111111 -1.11111111 1.11111111 0 0 Z " fill="#8CAFE5" transform="translate(159,123)"/>
<path d="M0 0 C2.375 0.25 2.375 0.25 5 1 C7.07212998 4.05366524 7.15289369 6.16032294 6.625 9.75 C6.51414063 10.54921875 6.40328125 11.3484375 6.2890625 12.171875 C6.19367188 12.77515625 6.09828125 13.3784375 6 14 C5.01 14 4.02 14 3 14 C3.350625 13.46375 3.70125 12.9275 4.0625 12.375 C5.33735758 9.14536079 4.96557827 7.31055407 4 4 C2.06283962 1.64368175 2.06283962 1.64368175 0 0 Z " fill="#2F83CB" transform="translate(168,59)"/>
<path d="M0 0 C3.95677402 1.67401978 6.84464213 4.13149285 10 7 C10 7.66 10 8.32 10 9 C5.57238086 7.60846256 3.0443745 5.47928514 0 2 C0 1.34 0 0.68 0 0 Z " fill="#88B8FA" transform="translate(30,40)"/>
<path d="M0 0 C0.66 0 1.32 0 2 0 C2 0.66 2 1.32 2 2 C2.680625 2.226875 3.36125 2.45375 4.0625 2.6875 C7.79614324 4.35572357 10.72163421 6.55729608 14 9 C13.01 9.495 13.01 9.495 12 10 C9.43359375 8.671875 9.43359375 8.671875 6.4375 6.75 C5.44621094 6.12609375 4.45492187 5.5021875 3.43359375 4.859375 C1 3 1 3 0 0 Z " fill="#11475E" transform="translate(31,137)"/>
<path d="M0 0 C0.556875 0.66 1.11375 1.32 1.6875 2 C3.84062308 4.25492211 3.84062308 4.25492211 6.75 4.25 C7.4925 4.1675 8.235 4.085 9 4 C9 4.66 9 5.32 9 6 C5.7 6 2.4 6 -1 6 C-0.67 4.02 -0.34 2.04 0 0 Z " fill="#4F51CD" transform="translate(442,105)"/>
<path d="M0 0 C2.31 0 4.62 0 7 0 C7 0.66 7 1.32 7 2 C9.97 2 12.94 2 16 2 C16 2.33 16 2.66 16 3 C14.27119018 3.05449838 12.54187288 3.09301688 10.8125 3.125 C9.84957031 3.14820312 8.88664063 3.17140625 7.89453125 3.1953125 C4.87187222 2.9913544 2.73230015 2.26874632 0 1 C0 0.67 0 0.34 0 0 Z " fill="#5858C0" transform="translate(202,109)"/>
<path d="M0 0 C0 0.99 0 1.98 0 3 C-0.639375 3.28875 -1.27875 3.5775 -1.9375 3.875 C-4.15206079 4.82823451 -4.15206079 4.82823451 -5 7 C-6.32 6.67 -7.64 6.34 -9 6 C-6.03 4.02 -3.06 2.04 0 0 Z " fill="#A4B2EA" transform="translate(41,16)"/>
<path d="M0 0 C0.99 0.33 1.98 0.66 3 1 C3.625 3.8125 3.625 3.8125 4 7 C3.01 8.485 3.01 8.485 2 10 C0.76276024 7.52552048 1 5.7446651 1 3 C0.67 2.01 0.34 1.02 0 0 Z " fill="#8DB5E9" transform="translate(170,124)"/>
<path d="M0 0 C2.75 -0.25 2.75 -0.25 6 0 C8.375 2 8.375 2 10 4 C6.7 3.01 3.4 2.02 0 1 C0 0.67 0 0.34 0 0 Z " fill="#11465E" transform="translate(45,147)"/>
<path d="M0 0 C0.33 0 0.66 0 1 0 C1 2.31 1 4.62 1 7 C0.01 7.33 -0.98 7.66 -2 8 C-1.125 2.25 -1.125 2.25 0 0 Z " fill="#458CC4" transform="translate(180,36)"/>
<path d="M0 0 C1.32 0.33 2.64 0.66 4 1 C1.03 3.475 1.03 3.475 -2 6 C-2 3 -2 3 0 0 Z " fill="#8DBBFD" transform="translate(173,42)"/>
</svg>